<svg xmlns="http://www.w3.org/2000/svg" xmlns:xlink="http://www.w3.org/1999/xlink" width="136" zoomAndPan="magnify" viewBox="0 0 102 35.25" height="47" preserveAspectRatio="xMidYMid meet" version="1.0"><defs><g/><clipPath id="13ae3920f8"><path d="M 1.0625 0 L 100.9375 0 L 100.9375 34.515625 L 1.0625 34.515625 Z M 1.0625 0 " clip-rule="nonzero"/></clipPath><clipPath id="a9d72524c9"><path d="M 1.136719 1.332031 L 29.765625 1.332031 L 29.765625 31 L 1.136719 31 Z M 1.136719 1.332031 " clip-rule="nonzero"/></clipPath><clipPath id="142b9b91a8"><path d="M 1.0625 0 L 29 0 L 29 31 L 1.0625 31 Z M 1.0625 0 " clip-rule="nonzero"/></clipPath></defs><g clip-path="url(#13ae3920f8)"><path fill="#ffffff" d="M 1.0625 0 L 100.9375 0 L 100.9375 34.515625 L 1.0625 34.515625 Z M 1.0625 0 " fill-opacity="1" fill-rule="nonzero"/><path fill="#ffffff" d="M 1.0625 0 L 100.9375 0 L 100.9375 34.515625 L 1.0625 34.515625 Z M 1.0625 0 " fill-opacity="1" fill-rule="nonzero"/></g><g clip-path="url(#a9d72524c9)"><path fill="#000000" d="M 1.136719 1.332031 L 29.765625 1.332031 L 29.765625 30.96875 L 1.136719 30.96875 Z M 1.136719 1.332031 " fill-opacity="1" fill-rule="nonzero"/></g><g clip-path="url(#142b9b91a8)"><g fill="#ffffff" fill-opacity="1"><g transform="translate(0.701574, 30.859248)"><g><path d="M 16.75 0 L 10.71875 0 L 10.71875 -12.015625 L 0.140625 -30.578125 L 6.625 -30.578125 L 13.625 -18.5625 L 14.140625 -18.5625 L 20.984375 -30.578125 L 27.328125 -30.578125 L 16.75 -12.015625 Z M 16.75 0 "/></g></g></g></g><g fill="#000000" fill-opacity="1"><g transform="translate(52.392909, 7.630692)"><g><path d="M 2.65625 -2 L 2.65625 0 L 2 0 L 2 -2 L 0.15625 -4.8125 L 0.875 -4.8125 L 2.34375 -2.515625 L 3.796875 -4.8125 L 4.515625 -4.8125 Z M 2.65625 -2 "/></g></g><g transform="translate(57.05946, 7.630692)"><g><path d="M 5.109375 -2.4375 C 5.109375 -1.925781 5.007812 -1.484375 4.8125 -1.109375 C 4.625 -0.734375 4.347656 -0.441406 3.984375 -0.234375 C 3.628906 -0.0351562 3.207031 0.0625 2.71875 0.0625 C 2.21875 0.0625 1.789062 -0.0351562 1.4375 -0.234375 C 1.082031 -0.429688 0.804688 -0.71875 0.609375 -1.09375 C 0.421875 -1.476562 0.328125 -1.925781 0.328125 -2.4375 C 0.328125 -3.195312 0.535156 -3.796875 0.953125 -4.234375 C 1.378906 -4.671875 1.96875 -4.890625 2.71875 -4.890625 C 3.207031 -4.890625 3.632812 -4.789062 4 -4.59375 C 4.363281 -4.394531 4.640625 -4.109375 4.828125 -3.734375 C 5.015625 -3.367188 5.109375 -2.9375 5.109375 -2.4375 Z M 4.4375 -2.4375 C 4.4375 -3.03125 4.285156 -3.5 3.984375 -3.84375 C 3.691406 -4.1875 3.269531 -4.359375 2.71875 -4.359375 C 2.164062 -4.359375 1.738281 -4.1875 1.4375 -3.84375 C 1.144531 -3.507812 1 -3.039062 1 -2.4375 C 1 -1.832031 1.148438 -1.351562 1.453125 -1 C 1.753906 -0.644531 2.175781 -0.46875 2.71875 -0.46875 C 3.269531 -0.46875 3.691406 -0.632812 3.984375 -0.96875 C 4.285156 -1.3125 4.4375 -1.800781 4.4375 -2.4375 Z M 4.4375 -2.4375 "/></g></g><g transform="translate(62.501491, 7.630692)"><g><path d="M 2.5 0.0625 C 2.101562 0.0625 1.757812 -0.00390625 1.46875 -0.140625 C 1.175781 -0.285156 0.945312 -0.492188 0.78125 -0.765625 C 0.625 -1.046875 0.546875 -1.375 0.546875 -1.75 L 0.546875 -4.8125 L 1.1875 -4.8125 L 1.1875 -1.8125 C 1.1875 -1.363281 1.296875 -1.023438 1.515625 -0.796875 C 1.742188 -0.578125 2.070312 -0.46875 2.5 -0.46875 C 2.925781 -0.46875 3.257812 -0.582031 3.5 -0.8125 C 3.738281 -1.050781 3.859375 -1.394531 3.859375 -1.84375 L 3.859375 -4.8125 L 4.515625 -4.8125 L 4.515625 -1.8125 C 4.515625 -1.425781 4.429688 -1.085938 4.265625 -0.796875 C 4.097656 -0.515625 3.863281 -0.300781 3.5625 -0.15625 C 3.257812 -0.0078125 2.90625 0.0625 2.5 0.0625 Z M 2.5 0.0625 "/></g></g><g transform="translate(67.554075, 7.630692)"><g><path d="M 4.34375 -1.328125 C 4.34375 -0.878906 4.171875 -0.535156 3.828125 -0.296875 C 3.484375 -0.0546875 2.992188 0.0625 2.359375 0.0625 C 1.179688 0.0625 0.5 -0.34375 0.3125 -1.15625 L 0.953125 -1.28125 C 1.023438 -0.988281 1.175781 -0.773438 1.40625 -0.640625 C 1.644531 -0.503906 1.96875 -0.4375 2.375 -0.4375 C 2.800781 -0.4375 3.128906 -0.507812 3.359375 -0.65625 C 3.585938 -0.800781 3.703125 -1.015625 3.703125 -1.296875 C 3.703125 -1.453125 3.664062 -1.578125 3.59375 -1.671875 C 3.519531 -1.773438 3.414062 -1.859375 3.28125 -1.921875 C 3.15625 -1.984375 3.003906 -2.035156 2.828125 -2.078125 C 2.648438 -2.117188 2.453125 -2.164062 2.234375 -2.21875 C 1.847656 -2.300781 1.554688 -2.382812 1.359375 -2.46875 C 1.160156 -2.550781 1.003906 -2.644531 0.890625 -2.75 C 0.773438 -2.851562 0.6875 -2.972656 0.625 -3.109375 C 0.570312 -3.253906 0.546875 -3.414062 0.546875 -3.59375 C 0.546875 -4.007812 0.703125 -4.328125 1.015625 -4.546875 C 1.328125 -4.773438 1.78125 -4.890625 2.375 -4.890625 C 2.914062 -4.890625 3.332031 -4.804688 3.625 -4.640625 C 3.914062 -4.472656 4.117188 -4.1875 4.234375 -3.78125 L 3.59375 -3.671875 C 3.519531 -3.921875 3.382812 -4.101562 3.1875 -4.21875 C 2.988281 -4.332031 2.710938 -4.390625 2.359375 -4.390625 C 1.972656 -4.390625 1.675781 -4.328125 1.46875 -4.203125 C 1.269531 -4.078125 1.171875 -3.890625 1.171875 -3.640625 C 1.171875 -3.484375 1.210938 -3.359375 1.296875 -3.265625 C 1.378906 -3.171875 1.492188 -3.085938 1.640625 -3.015625 C 1.785156 -2.953125 2.078125 -2.867188 2.515625 -2.765625 C 2.671875 -2.734375 2.820312 -2.695312 2.96875 -2.65625 C 3.113281 -2.625 3.253906 -2.582031 3.390625 -2.53125 C 3.523438 -2.488281 3.648438 -2.429688 3.765625 -2.359375 C 3.878906 -2.296875 3.976562 -2.21875 4.0625 -2.125 C 4.15625 -2.03125 4.222656 -1.914062 4.265625 -1.78125 C 4.316406 -1.65625 4.34375 -1.503906 4.34375 -1.328125 Z M 4.34375 -1.328125 "/></g></g><g transform="translate(72.220626, 7.630692)"><g><path d="M 2.5 0.0625 C 2.101562 0.0625 1.757812 -0.00390625 1.46875 -0.140625 C 1.175781 -0.285156 0.945312 -0.492188 0.78125 -0.765625 C 0.625 -1.046875 0.546875 -1.375 0.546875 -1.75 L 0.546875 -4.8125 L 1.1875 -4.8125 L 1.1875 -1.8125 C 1.1875 -1.363281 1.296875 -1.023438 1.515625 -0.796875 C 1.742188 -0.578125 2.070312 -0.46875 2.5 -0.46875 C 2.925781 -0.46875 3.257812 -0.582031 3.5 -0.8125 C 3.738281 -1.050781 3.859375 -1.394531 3.859375 -1.84375 L 3.859375 -4.8125 L 4.515625 -4.8125 L 4.515625 -1.8125 C 4.515625 -1.425781 4.429688 -1.085938 4.265625 -0.796875 C 4.097656 -0.515625 3.863281 -0.300781 3.5625 -0.15625 C 3.257812 -0.0078125 2.90625 0.0625 2.5 0.0625 Z M 2.5 0.0625 "/></g></g><g transform="translate(77.273209, 7.630692)"><g><path d="M 1.234375 -4.28125 L 1.234375 -2.484375 L 3.90625 -2.484375 L 3.90625 -1.953125 L 1.234375 -1.953125 L 1.234375 0 L 0.578125 0 L 0.578125 -4.8125 L 4 -4.8125 L 4 -4.28125 Z M 1.234375 -4.28125 "/></g></g></g><g fill="#000000" fill-opacity="1"><g transform="translate(40.923533, 16.959239)"><g><path d="M 3.828125 0 L 3.828125 -2.234375 L 1.234375 -2.234375 L 1.234375 0 L 0.578125 0 L 0.578125 -4.8125 L 1.234375 -4.8125 L 1.234375 -2.78125 L 3.828125 -2.78125 L 3.828125 -4.8125 L 4.484375 -4.8125 L 4.484375 0 Z M 3.828125 0 "/></g></g><g transform="translate(45.976116, 16.959239)"><g><path d="M 2.5 0.0625 C 2.101562 0.0625 1.757812 -0.00390625 1.46875 -0.140625 C 1.175781 -0.285156 0.945312 -0.492188 0.78125 -0.765625 C 0.625 -1.046875 0.546875 -1.375 0.546875 -1.75 L 0.546875 -4.8125 L 1.1875 -4.8125 L 1.1875 -1.8125 C 1.1875 -1.363281 1.296875 -1.023438 1.515625 -0.796875 C 1.742188 -0.578125 2.070312 -0.46875 2.5 -0.46875 C 2.925781 -0.46875 3.257812 -0.582031 3.5 -0.8125 C 3.738281 -1.050781 3.859375 -1.394531 3.859375 -1.84375 L 3.859375 -4.8125 L 4.515625 -4.8125 L 4.515625 -1.8125 C 4.515625 -1.425781 4.429688 -1.085938 4.265625 -0.796875 C 4.097656 -0.515625 3.863281 -0.300781 3.5625 -0.15625 C 3.257812 -0.0078125 2.90625 0.0625 2.5 0.0625 Z M 2.5 0.0625 "/></g></g><g transform="translate(51.0287, 16.959239)"><g><path d="M 4.34375 -1.328125 C 4.34375 -0.878906 4.171875 -0.535156 3.828125 -0.296875 C 3.484375 -0.0546875 2.992188 0.0625 2.359375 0.0625 C 1.179688 0.0625 0.5 -0.34375 0.3125 -1.15625 L 0.953125 -1.28125 C 1.023438 -0.988281 1.175781 -0.773438 1.40625 -0.640625 C 1.644531 -0.503906 1.96875 -0.4375 2.375 -0.4375 C 2.800781 -0.4375 3.128906 -0.507812 3.359375 -0.65625 C 3.585938 -0.800781 3.703125 -1.015625 3.703125 -1.296875 C 3.703125 -1.453125 3.664062 -1.578125 3.59375 -1.671875 C 3.519531 -1.773438 3.414062 -1.859375 3.28125 -1.921875 C 3.15625 -1.984375 3.003906 -2.035156 2.828125 -2.078125 C 2.648438 -2.117188 2.453125 -2.164062 2.234375 -2.21875 C 1.847656 -2.300781 1.554688 -2.382812 1.359375 -2.46875 C 1.160156 -2.550781 1.003906 -2.644531 0.890625 -2.75 C 0.773438 -2.851562 0.6875 -2.972656 0.625 -3.109375 C 0.570312 -3.253906 0.546875 -3.414062 0.546875 -3.59375 C 0.546875 -4.007812 0.703125 -4.328125 1.015625 -4.546875 C 1.328125 -4.773438 1.78125 -4.890625 2.375 -4.890625 C 2.914062 -4.890625 3.332031 -4.804688 3.625 -4.640625 C 3.914062 -4.472656 4.117188 -4.1875 4.234375 -3.78125 L 3.59375 -3.671875 C 3.519531 -3.921875 3.382812 -4.101562 3.1875 -4.21875 C 2.988281 -4.332031 2.710938 -4.390625 2.359375 -4.390625 C 1.972656 -4.390625 1.675781 -4.328125 1.46875 -4.203125 C 1.269531 -4.078125 1.171875 -3.890625 1.171875 -3.640625 C 1.171875 -3.484375 1.210938 -3.359375 1.296875 -3.265625 C 1.378906 -3.171875 1.492188 -3.085938 1.640625 -3.015625 C 1.785156 -2.953125 2.078125 -2.867188 2.515625 -2.765625 C 2.671875 -2.734375 2.820312 -2.695312 2.96875 -2.65625 C 3.113281 -2.625 3.253906 -2.582031 3.390625 -2.53125 C 3.523438 -2.488281 3.648438 -2.429688 3.765625 -2.359375 C 3.878906 -2.296875 3.976562 -2.21875 4.0625 -2.125 C 4.15625 -2.03125 4.222656 -1.914062 4.265625 -1.78125 C 4.316406 -1.65625 4.34375 -1.503906 4.34375 -1.328125 Z M 4.34375 -1.328125 "/></g></g><g transform="translate(55.695251, 16.959239)"><g><path d="M 4.34375 -1.328125 C 4.34375 -0.878906 4.171875 -0.535156 3.828125 -0.296875 C 3.484375 -0.0546875 2.992188 0.0625 2.359375 0.0625 C 1.179688 0.0625 0.5 -0.34375 0.3125 -1.15625 L 0.953125 -1.28125 C 1.023438 -0.988281 1.175781 -0.773438 1.40625 -0.640625 C 1.644531 -0.503906 1.96875 -0.4375 2.375 -0.4375 C 2.800781 -0.4375 3.128906 -0.507812 3.359375 -0.65625 C 3.585938 -0.800781 3.703125 -1.015625 3.703125 -1.296875 C 3.703125 -1.453125 3.664062 -1.578125 3.59375 -1.671875 C 3.519531 -1.773438 3.414062 -1.859375 3.28125 -1.921875 C 3.15625 -1.984375 3.003906 -2.035156 2.828125 -2.078125 C 2.648438 -2.117188 2.453125 -2.164062 2.234375 -2.21875 C 1.847656 -2.300781 1.554688 -2.382812 1.359375 -2.46875 C 1.160156 -2.550781 1.003906 -2.644531 0.890625 -2.75 C 0.773438 -2.851562 0.6875 -2.972656 0.625 -3.109375 C 0.570312 -3.253906 0.546875 -3.414062 0.546875 -3.59375 C 0.546875 -4.007812 0.703125 -4.328125 1.015625 -4.546875 C 1.328125 -4.773438 1.78125 -4.890625 2.375 -4.890625 C 2.914062 -4.890625 3.332031 -4.804688 3.625 -4.640625 C 3.914062 -4.472656 4.117188 -4.1875 4.234375 -3.78125 L 3.59375 -3.671875 C 3.519531 -3.921875 3.382812 -4.101562 3.1875 -4.21875 C 2.988281 -4.332031 2.710938 -4.390625 2.359375 -4.390625 C 1.972656 -4.390625 1.675781 -4.328125 1.46875 -4.203125 C 1.269531 -4.078125 1.171875 -3.890625 1.171875 -3.640625 C 1.171875 -3.484375 1.210938 -3.359375 1.296875 -3.265625 C 1.378906 -3.171875 1.492188 -3.085938 1.640625 -3.015625 C 1.785156 -2.953125 2.078125 -2.867188 2.515625 -2.765625 C 2.671875 -2.734375 2.820312 -2.695312 2.96875 -2.65625 C 3.113281 -2.625 3.253906 -2.582031 3.390625 -2.53125 C 3.523438 -2.488281 3.648438 -2.429688 3.765625 -2.359375 C 3.878906 -2.296875 3.976562 -2.21875 4.0625 -2.125 C 4.15625 -2.03125 4.222656 -1.914062 4.265625 -1.78125 C 4.316406 -1.65625 4.34375 -1.503906 4.34375 -1.328125 Z M 4.34375 -1.328125 "/></g></g><g transform="translate(60.361802, 16.959239)"><g><path d="M 3.984375 0 L 3.4375 -1.40625 L 1.25 -1.40625 L 0.6875 0 L 0.015625 0 L 1.984375 -4.8125 L 2.71875 -4.8125 L 4.65625 0 Z M 2.34375 -4.328125 L 2.3125 -4.234375 C 2.25 -4.035156 2.164062 -3.789062 2.0625 -3.5 L 1.4375 -1.921875 L 3.25 -1.921875 L 2.625 -3.5 C 2.5625 -3.664062 2.5 -3.847656 2.4375 -4.046875 Z M 2.34375 -4.328125 "/></g></g><g transform="translate(65.028352, 16.959239)"><g><path d="M 0.640625 0 L 0.640625 -4.8125 L 1.296875 -4.8125 L 1.296875 0 Z M 0.640625 0 "/></g></g><g transform="translate(66.972179, 16.959239)"><g><path d="M 3.703125 0 L 1.125 -4.109375 L 1.140625 -3.765625 L 1.15625 -3.203125 L 1.15625 0 L 0.578125 0 L 0.578125 -4.8125 L 1.328125 -4.8125 L 3.9375 -0.6875 C 3.90625 -1.132812 3.890625 -1.457031 3.890625 -1.65625 L 3.890625 -4.8125 L 4.484375 -4.8125 L 4.484375 0 Z M 3.703125 0 "/></g></g><g transform="translate(72.024763, 16.959239)"><g><path d="M 3.984375 0 L 3.4375 -1.40625 L 1.25 -1.40625 L 0.6875 0 L 0.015625 0 L 1.984375 -4.8125 L 2.71875 -4.8125 L 4.65625 0 Z M 2.34375 -4.328125 L 2.3125 -4.234375 C 2.25 -4.035156 2.164062 -3.789062 2.0625 -3.5 L 1.4375 -1.921875 L 3.25 -1.921875 L 2.625 -3.5 C 2.5625 -3.664062 2.5 -3.847656 2.4375 -4.046875 Z M 2.34375 -4.328125 "/></g></g><g transform="translate(76.691313, 16.959239)"><g><path d="M 4.296875 -1.359375 C 4.296875 -0.929688 4.140625 -0.597656 3.828125 -0.359375 C 3.515625 -0.117188 3.082031 0 2.53125 0 L 0.578125 0 L 0.578125 -4.8125 L 2.328125 -4.8125 C 3.453125 -4.8125 4.015625 -4.421875 4.015625 -3.640625 C 4.015625 -3.359375 3.9375 -3.117188 3.78125 -2.921875 C 3.625 -2.734375 3.398438 -2.609375 3.109375 -2.546875 C 3.484375 -2.492188 3.773438 -2.363281 3.984375 -2.15625 C 4.191406 -1.945312 4.296875 -1.679688 4.296875 -1.359375 Z M 3.359375 -3.5625 C 3.359375 -3.820312 3.269531 -4.007812 3.09375 -4.125 C 2.914062 -4.238281 2.660156 -4.296875 2.328125 -4.296875 L 1.234375 -4.296875 L 1.234375 -2.765625 L 2.328125 -2.765625 C 2.671875 -2.765625 2.925781 -2.828125 3.09375 -2.953125 C 3.269531 -3.085938 3.359375 -3.289062 3.359375 -3.5625 Z M 3.640625 -1.40625 C 3.640625 -1.976562 3.238281 -2.265625 2.4375 -2.265625 L 1.234375 -2.265625 L 1.234375 -0.515625 L 2.5 -0.515625 C 2.894531 -0.515625 3.179688 -0.585938 3.359375 -0.734375 C 3.546875 -0.890625 3.640625 -1.113281 3.640625 -1.40625 Z M 3.640625 -1.40625 "/></g></g><g transform="translate(81.357864, 16.959239)"><g><path d="M 3.984375 0 L 3.4375 -1.40625 L 1.25 -1.40625 L 0.6875 0 L 0.015625 0 L 1.984375 -4.8125 L 2.71875 -4.8125 L 4.65625 0 Z M 2.34375 -4.328125 L 2.3125 -4.234375 C 2.25 -4.035156 2.164062 -3.789062 2.0625 -3.5 L 1.4375 -1.921875 L 3.25 -1.921875 L 2.625 -3.5 C 2.5625 -3.664062 2.5 -3.847656 2.4375 -4.046875 Z M 2.34375 -4.328125 "/></g></g><g transform="translate(86.024415, 16.959239)"><g><path d="M 4.71875 -2.453125 C 4.71875 -1.960938 4.617188 -1.53125 4.421875 -1.15625 C 4.234375 -0.78125 3.960938 -0.492188 3.609375 -0.296875 C 3.253906 -0.0976562 2.84375 0 2.375 0 L 0.578125 0 L 0.578125 -4.8125 L 2.171875 -4.8125 C 2.984375 -4.8125 3.609375 -4.609375 4.046875 -4.203125 C 4.492188 -3.796875 4.71875 -3.210938 4.71875 -2.453125 Z M 4.0625 -2.453125 C 4.0625 -3.054688 3.894531 -3.515625 3.5625 -3.828125 C 3.238281 -4.140625 2.769531 -4.296875 2.15625 -4.296875 L 1.234375 -4.296875 L 1.234375 -0.515625 L 2.296875 -0.515625 C 2.648438 -0.515625 2.960938 -0.59375 3.234375 -0.75 C 3.503906 -0.90625 3.707031 -1.128906 3.84375 -1.421875 C 3.988281 -1.710938 4.0625 -2.054688 4.0625 -2.453125 Z M 4.0625 -2.453125 "/></g></g><g transform="translate(91.076999, 16.959239)"><g><path d="M 0.640625 0 L 0.640625 -4.8125 L 1.296875 -4.8125 L 1.296875 0 Z M 0.640625 0 "/></g></g></g><g fill="#000000" fill-opacity="1"><g transform="translate(34.766607, 29.433942)"><g><path d="M 2.109375 -10.71875 C 2.253906 -10.71875 2.40625 -10.675781 2.5625 -10.59375 C 2.71875 -10.519531 2.835938 -10.421875 2.921875 -10.296875 L 6.625 -4.578125 L 5.875 -4.609375 L 9.671875 -10.296875 C 9.867188 -10.578125 10.117188 -10.71875 10.421875 -10.71875 C 10.660156 -10.71875 10.878906 -10.628906 11.078125 -10.453125 C 11.273438 -10.273438 11.375 -10.050781 11.375 -9.78125 L 11.375 -0.9375 C 11.375 -0.664062 11.285156 -0.441406 11.109375 -0.265625 C 10.929688 -0.0859375 10.703125 0 10.421875 0 C 10.140625 0 9.90625 -0.0859375 9.71875 -0.265625 C 9.539062 -0.441406 9.453125 -0.664062 9.453125 -0.9375 L 9.453125 -8.125 L 10.0625 -7.984375 L 6.9375 -3.234375 C 6.84375 -3.128906 6.726562 -3.035156 6.59375 -2.953125 C 6.457031 -2.867188 6.316406 -2.832031 6.171875 -2.84375 C 6.035156 -2.832031 5.898438 -2.867188 5.765625 -2.953125 C 5.628906 -3.035156 5.515625 -3.128906 5.421875 -3.234375 L 2.5 -7.859375 L 2.90625 -8.671875 L 2.90625 -0.9375 C 2.90625 -0.664062 2.820312 -0.441406 2.65625 -0.265625 C 2.5 -0.0859375 2.285156 0 2.015625 0 C 1.765625 0 1.554688 -0.0859375 1.390625 -0.265625 C 1.222656 -0.441406 1.140625 -0.664062 1.140625 -0.9375 L 1.140625 -9.78125 C 1.140625 -10.03125 1.234375 -10.25 1.421875 -10.4375 C 1.617188 -10.625 1.847656 -10.71875 2.109375 -10.71875 Z M 2.109375 -10.71875 "/></g></g></g><g fill="#000000" fill-opacity="1"><g transform="translate(47.274894, 29.433942)"><g><path d="M 8.734375 -10.71875 C 9.003906 -10.71875 9.21875 -10.625 9.375 -10.4375 C 9.539062 -10.257812 9.625 -10.039062 9.625 -9.78125 L 9.625 -4.25 C 9.625 -3.40625 9.441406 -2.65625 9.078125 -2 C 8.722656 -1.351562 8.226562 -0.84375 7.59375 -0.46875 C 6.957031 -0.101562 6.222656 0.078125 5.390625 0.078125 C 4.554688 0.078125 3.820312 -0.101562 3.1875 -0.46875 C 2.550781 -0.84375 2.050781 -1.351562 1.6875 -2 C 1.320312 -2.65625 1.140625 -3.40625 1.140625 -4.25 L 1.140625 -9.78125 C 1.140625 -10.039062 1.234375 -10.257812 1.421875 -10.4375 C 1.609375 -10.625 1.84375 -10.71875 2.125 -10.71875 C 2.351562 -10.71875 2.5625 -10.625 2.75 -10.4375 C 2.945312 -10.257812 3.046875 -10.039062 3.046875 -9.78125 L 3.046875 -4.25 C 3.046875 -3.738281 3.15625 -3.296875 3.375 -2.921875 C 3.59375 -2.554688 3.878906 -2.269531 4.234375 -2.0625 C 4.597656 -1.851562 4.984375 -1.75 5.390625 -1.75 C 5.828125 -1.75 6.234375 -1.851562 6.609375 -2.0625 C 6.992188 -2.269531 7.300781 -2.554688 7.53125 -2.921875 C 7.769531 -3.296875 7.890625 -3.738281 7.890625 -4.25 L 7.890625 -9.78125 C 7.890625 -10.039062 7.960938 -10.257812 8.109375 -10.4375 C 8.265625 -10.625 8.472656 -10.71875 8.734375 -10.71875 Z M 8.734375 -10.71875 "/></g></g></g><g fill="#000000" fill-opacity="1"><g transform="translate(58.0421, 29.433942)"><g><path d="M 4.578125 0.15625 C 3.867188 0.15625 3.226562 0.0664062 2.65625 -0.109375 C 2.082031 -0.285156 1.539062 -0.597656 1.03125 -1.046875 C 0.894531 -1.160156 0.789062 -1.289062 0.71875 -1.4375 C 0.644531 -1.582031 0.609375 -1.722656 0.609375 -1.859375 C 0.609375 -2.097656 0.691406 -2.304688 0.859375 -2.484375 C 1.023438 -2.660156 1.238281 -2.75 1.5 -2.75 C 1.6875 -2.75 1.859375 -2.6875 2.015625 -2.5625 C 2.398438 -2.25 2.785156 -2.007812 3.171875 -1.84375 C 3.554688 -1.6875 4.023438 -1.609375 4.578125 -1.609375 C 4.960938 -1.609375 5.3125 -1.664062 5.625 -1.78125 C 5.9375 -1.894531 6.1875 -2.050781 6.375 -2.25 C 6.570312 -2.445312 6.671875 -2.675781 6.671875 -2.9375 C 6.671875 -3.238281 6.578125 -3.492188 6.390625 -3.703125 C 6.210938 -3.921875 5.9375 -4.101562 5.5625 -4.25 C 5.1875 -4.40625 4.707031 -4.519531 4.125 -4.59375 C 3.570312 -4.675781 3.085938 -4.800781 2.671875 -4.96875 C 2.253906 -5.132812 1.90625 -5.347656 1.625 -5.609375 C 1.34375 -5.867188 1.128906 -6.175781 0.984375 -6.53125 C 0.847656 -6.882812 0.78125 -7.28125 0.78125 -7.71875 C 0.78125 -8.375 0.945312 -8.9375 1.28125 -9.40625 C 1.625 -9.875 2.085938 -10.226562 2.671875 -10.46875 C 3.253906 -10.71875 3.894531 -10.84375 4.59375 -10.84375 C 5.257812 -10.84375 5.875 -10.742188 6.4375 -10.546875 C 7.007812 -10.347656 7.472656 -10.097656 7.828125 -9.796875 C 8.117188 -9.554688 8.265625 -9.285156 8.265625 -8.984375 C 8.265625 -8.765625 8.175781 -8.5625 8 -8.375 C 7.832031 -8.1875 7.628906 -8.09375 7.390625 -8.09375 C 7.242188 -8.09375 7.109375 -8.140625 6.984375 -8.234375 C 6.816406 -8.378906 6.59375 -8.515625 6.3125 -8.640625 C 6.039062 -8.765625 5.753906 -8.867188 5.453125 -8.953125 C 5.148438 -9.046875 4.863281 -9.09375 4.59375 -9.09375 C 4.15625 -9.09375 3.785156 -9.035156 3.484375 -8.921875 C 3.191406 -8.804688 2.96875 -8.648438 2.8125 -8.453125 C 2.65625 -8.265625 2.578125 -8.046875 2.578125 -7.796875 C 2.578125 -7.484375 2.664062 -7.226562 2.84375 -7.03125 C 3.03125 -6.832031 3.289062 -6.675781 3.625 -6.5625 C 3.957031 -6.445312 4.359375 -6.34375 4.828125 -6.25 C 5.441406 -6.132812 5.976562 -6 6.4375 -5.84375 C 6.90625 -5.695312 7.289062 -5.503906 7.59375 -5.265625 C 7.894531 -5.023438 8.125 -4.722656 8.28125 -4.359375 C 8.4375 -3.992188 8.515625 -3.554688 8.515625 -3.046875 C 8.515625 -2.378906 8.328125 -1.804688 7.953125 -1.328125 C 7.585938 -0.847656 7.109375 -0.476562 6.515625 -0.21875 C 5.921875 0.03125 5.273438 0.15625 4.578125 0.15625 Z M 4.578125 0.15625 "/></g></g></g><g fill="#000000" fill-opacity="1"><g transform="translate(67.159865, 29.433942)"><g><path d="M 2.078125 -10.703125 L 7.203125 -10.703125 C 7.460938 -10.703125 7.679688 -10.613281 7.859375 -10.4375 C 8.035156 -10.269531 8.125 -10.054688 8.125 -9.796875 C 8.125 -9.535156 8.035156 -9.328125 7.859375 -9.171875 C 7.679688 -9.015625 7.460938 -8.9375 7.203125 -8.9375 L 2.921875 -8.9375 L 3.0625 -9.203125 L 3.0625 -6.21875 L 2.9375 -6.34375 L 6.515625 -6.34375 C 6.773438 -6.34375 6.992188 -6.257812 7.171875 -6.09375 C 7.347656 -5.925781 7.4375 -5.707031 7.4375 -5.4375 C 7.4375 -5.1875 7.347656 -4.976562 7.171875 -4.8125 C 6.992188 -4.65625 6.773438 -4.578125 6.515625 -4.578125 L 2.984375 -4.578125 L 3.0625 -4.703125 L 3.0625 -1.625 L 2.9375 -1.75 L 7.203125 -1.75 C 7.460938 -1.75 7.679688 -1.660156 7.859375 -1.484375 C 8.035156 -1.304688 8.125 -1.101562 8.125 -0.875 C 8.125 -0.613281 8.035156 -0.398438 7.859375 -0.234375 C 7.679688 -0.078125 7.460938 0 7.203125 0 L 2.078125 0 C 1.816406 0 1.59375 -0.0859375 1.40625 -0.265625 C 1.226562 -0.441406 1.140625 -0.664062 1.140625 -0.9375 L 1.140625 -9.765625 C 1.140625 -10.023438 1.226562 -10.242188 1.40625 -10.421875 C 1.59375 -10.609375 1.816406 -10.703125 2.078125 -10.703125 Z M 2.078125 -10.703125 "/></g></g></g><g fill="#000000" fill-opacity="1"><g transform="translate(75.895807, 29.433942)"><g><path d="M 8.734375 -10.71875 C 9.003906 -10.71875 9.21875 -10.625 9.375 -10.4375 C 9.539062 -10.257812 9.625 -10.039062 9.625 -9.78125 L 9.625 -4.25 C 9.625 -3.40625 9.441406 -2.65625 9.078125 -2 C 8.722656 -1.351562 8.226562 -0.84375 7.59375 -0.46875 C 6.957031 -0.101562 6.222656 0.078125 5.390625 0.078125 C 4.554688 0.078125 3.820312 -0.101562 3.1875 -0.46875 C 2.550781 -0.84375 2.050781 -1.351562 1.6875 -2 C 1.320312 -2.65625 1.140625 -3.40625 1.140625 -4.25 L 1.140625 -9.78125 C 1.140625 -10.039062 1.234375 -10.257812 1.421875 -10.4375 C 1.609375 -10.625 1.84375 -10.71875 2.125 -10.71875 C 2.351562 -10.71875 2.5625 -10.625 2.75 -10.4375 C 2.945312 -10.257812 3.046875 -10.039062 3.046875 -9.78125 L 3.046875 -4.25 C 3.046875 -3.738281 3.15625 -3.296875 3.375 -2.921875 C 3.59375 -2.554688 3.878906 -2.269531 4.234375 -2.0625 C 4.597656 -1.851562 4.984375 -1.75 5.390625 -1.75 C 5.828125 -1.75 6.234375 -1.851562 6.609375 -2.0625 C 6.992188 -2.269531 7.300781 -2.554688 7.53125 -2.921875 C 7.769531 -3.296875 7.890625 -3.738281 7.890625 -4.25 L 7.890625 -9.78125 C 7.890625 -10.039062 7.960938 -10.257812 8.109375 -10.4375 C 8.265625 -10.625 8.472656 -10.71875 8.734375 -10.71875 Z M 8.734375 -10.71875 "/></g></g></g><g fill="#000000" fill-opacity="1"><g transform="translate(86.663013, 29.433942)"><g><path d="M 2.109375 -10.71875 C 2.253906 -10.71875 2.40625 -10.675781 2.5625 -10.59375 C 2.71875 -10.519531 2.835938 -10.421875 2.921875 -10.296875 L 6.625 -4.578125 L 5.875 -4.609375 L 9.671875 -10.296875 C 9.867188 -10.578125 10.117188 -10.71875 10.421875 -10.71875 C 10.660156 -10.71875 10.878906 -10.628906 11.078125 -10.453125 C 11.273438 -10.273438 11.375 -10.050781 11.375 -9.78125 L 11.375 -0.9375 C 11.375 -0.664062 11.285156 -0.441406 11.109375 -0.265625 C 10.929688 -0.0859375 10.703125 0 10.421875 0 C 10.140625 0 9.90625 -0.0859375 9.71875 -0.265625 C 9.539062 -0.441406 9.453125 -0.664062 9.453125 -0.9375 L 9.453125 -8.125 L 10.0625 -7.984375 L 6.9375 -3.234375 C 6.84375 -3.128906 6.726562 -3.035156 6.59375 -2.953125 C 6.457031 -2.867188 6.316406 -2.832031 6.171875 -2.84375 C 6.035156 -2.832031 5.898438 -2.867188 5.765625 -2.953125 C 5.628906 -3.035156 5.515625 -3.128906 5.421875 -3.234375 L 2.5 -7.859375 L 2.90625 -8.671875 L 2.90625 -0.9375 C 2.90625 -0.664062 2.820312 -0.441406 2.65625 -0.265625 C 2.5 -0.0859375 2.285156 0 2.015625 0 C 1.765625 0 1.554688 -0.0859375 1.390625 -0.265625 C 1.222656 -0.441406 1.140625 -0.664062 1.140625 -0.9375 L 1.140625 -9.78125 C 1.140625 -10.03125 1.234375 -10.25 1.421875 -10.4375 C 1.617188 -10.625 1.847656 -10.71875 2.109375 -10.71875 Z M 2.109375 -10.71875 "/></g></g></g></svg>