<svg width="60" height="60" viewBox="0 0 60 60" fill="none" xmlns="http://www.w3.org/2000/svg">
  <g clip-path="url(#clip0)">
    <rect width="60" height="60" rx="20" fill="url(#paint0_linear)"/>
    <path d="M16.75 47H10.7188V35.9844L0.140625 17.4219H6.625L13.625 29.4375H14.1406L20.9844 17.4219H27.3281L16.75 35.9844V47Z" fill="white"/>
    <path d="M37.6094 40.5625C37.6094 39.8047 37.4609 39.0664 37.1875 38.4688C36.9141 37.8711 36.5117 37.4062 35.9844 37.125C35.4766 36.8438 34.8789 36.7344 34.2188 36.7344C33.5586 36.7344 32.9609 36.8438 32.4531 37.125C31.9258 37.4062 31.5039 37.8711 31.2188 38.4688C30.9414 39.0664 30.8281 39.8047 30.8281 40.5625C30.8281 41.3203 30.9414 42.0586 31.2188 42.6562C31.5039 43.2539 31.9258 43.7188 32.4531 44C32.9609 44.2812 33.5586 44.3906 34.2188 44.3906C34.8789 44.3906 35.4766 44.2812 35.9844 44C36.5117 43.7188 36.9141 43.2539 37.1875 42.6562C37.4609 42.0586 37.6094 41.3203 37.6094 40.5625Z" fill="white"/>
  </g>
  <defs>
    <linearGradient id="paint0_linear" x1="30" y1="0" x2="30" y2="60" gradientUnits="userSpaceOnUse">
      <stop stop-color="#4680FF"/>
      <stop offset="1" stop-color="#2F58B1"/>
    </linearGradient>
    <clipPath id="clip0">
      <rect width="60" height="60" fill="white"/>
    </clipPath>
  </defs>
</svg>
